<svg xmlns="http://www.w3.org/2000/svg" viewBox="0 0 96 96" role="img" aria-label="Logo Certificacion Digital Notarial">
  <defs>
    <linearGradient id="g" x1="16" y1="12" x2="80" y2="84" gradientUnits="userSpaceOnUse">
      <stop offset="0" stop-color="#1f6f8b"/>
      <stop offset="1" stop-color="#123c69"/>
    </linearGradient>
  </defs>
  <rect x="8" y="8" width="80" height="80" rx="20" fill="url(#g)"/>
  <path d="M48 19 70 29v17c0 16.5-9.5 26.4-22 32-12.5-5.6-22-15.5-22-32V29l22-10Z" fill="#ffffff" opacity=".96"/>
  <path d="M36 47c0-7.2 5.2-12.5 12-12.5S60 39.8 60 47" fill="none" stroke="#123c69" stroke-width="4" stroke-linecap="round"/>
  <path d="M42 47c0-3.7 2.5-6.5 6-6.5s6 2.8 6 6.5c0 7.9-2.8 13.9-8.2 18.5" fill="none" stroke="#123c69" stroke-width="4" stroke-linecap="round"/>
  <path d="M50.8 54.5c-.9 4-2.6 7.5-5.3 10.7" fill="none" stroke="#123c69" stroke-width="4" stroke-linecap="round"/>
  <path d="M33 31h30" stroke="#157f6f" stroke-width="4" stroke-linecap="round"/>
  <circle cx="69" cy="69" r="13" fill="#157f6f"/>
  <path d="m63.5 69.5 4 4 7-8" fill="none" stroke="#fff" stroke-width="3.5" stroke-linecap="round" stroke-linejoin="round"/>
</svg>
