<svg xmlns="http://www.w3.org/2000/svg" viewBox="0 0 96 96">
  <rect x="8" y="8" width="80" height="80" rx="20" fill="#123c69"/>
  <path d="M48 19 70 29v17c0 16.5-9.5 26.4-22 32-12.5-5.6-22-15.5-22-32V29l22-10Z" fill="#fff"/>
  <path d="M36 47c0-7.2 5.2-12.5 12-12.5S60 39.8 60 47M42 47c0-3.7 2.5-6.5 6-6.5s6 2.8 6 6.5c0 7.9-2.8 13.9-8.2 18.5M50.8 54.5c-.9 4-2.6 7.5-5.3 10.7" fill="none" stroke="#123c69" stroke-width="4" stroke-linecap="round"/>
  <path d="M33 31h30" stroke="#157f6f" stroke-width="4" stroke-linecap="round"/>
</svg>
