<svg xmlns="http://www.w3.org/2000/svg" viewBox="0 0 96 96">
  <defs>
    <linearGradient id="silver" x1="20" x2="78" y1="14" y2="82" gradientUnits="userSpaceOnUse">
      <stop offset="0" stop-color="#f8fafc"/>
      <stop offset="0.42" stop-color="#cbd5e1"/>
      <stop offset="1" stop-color="#f1f5f9"/>
    </linearGradient>
    <linearGradient id="ink" x1="14" x2="82" y1="10" y2="88" gradientUnits="userSpaceOnUse">
      <stop offset="0" stop-color="#030712"/>
      <stop offset="1" stop-color="#1f2937"/>
    </linearGradient>
  </defs>
  <rect x="7" y="7" width="82" height="82" rx="22" fill="url(#ink)"/>
  <rect x="10.5" y="10.5" width="75" height="75" rx="19" fill="none" stroke="#cbd5e1" stroke-width="2"/>
  <path d="M48 19 70 29v17c0 16.5-9.5 26.4-22 32-12.5-5.6-22-15.5-22-32V29l22-10Z" fill="url(#silver)"/>
  <path d="M36 47c0-7.2 5.2-12.5 12-12.5S60 39.8 60 47M42 47c0-3.7 2.5-6.5 6-6.5s6 2.8 6 6.5c0 7.9-2.8 13.9-8.2 18.5M50.8 54.5c-.9 4-2.6 7.5-5.3 10.7" fill="none" stroke="#111827" stroke-width="4" stroke-linecap="round"/>
  <path d="M33 31h30" stroke="#9ca3af" stroke-width="4" stroke-linecap="round"/>
</svg>
